<svg xmlns="http://www.w3.org/2000/svg" width="174" height="70" fill="none"><path fill="#fff" d="M36.984 57h-6.516V44.994h6.318c1.092 0 1.938.3 2.538.9a2.88 2.88 0 0 1 .918 2.16c0 .732-.198 1.344-.594 1.836-.396.492-.888.798-1.476.918.648.096 1.194.426 1.638.99.444.564.666 1.218.666 1.962 0 .936-.306 1.71-.918 2.322-.612.612-1.47.918-2.574.918Zm-.756-7.2c.432 0 .774-.12 1.026-.36s.378-.552.378-.936-.132-.696-.396-.936c-.252-.252-.588-.378-1.008-.378h-3.204v2.61h3.204Zm.09 4.986c.48 0 .858-.12 1.134-.36.276-.252.414-.594.414-1.026 0-.396-.138-.726-.414-.99-.276-.276-.654-.414-1.134-.414h-3.294v2.79h3.294ZM49.856 57H47.57v-.9c-.624.744-1.542 1.116-2.754 1.116-.78 0-1.482-.252-2.106-.756-.612-.516-.918-1.224-.918-2.124 0-.936.3-1.638.9-2.106.612-.468 1.32-.702 2.124-.702 1.236 0 2.154.354 2.754 1.062v-1.17c0-.444-.174-.798-.522-1.062-.348-.264-.81-.396-1.386-.396-.948 0-1.794.342-2.538 1.026l-.864-1.53c1.032-.912 2.298-1.368 3.798-1.368 1.116 0 2.028.258 2.736.774.708.516 1.062 1.356 1.062 2.52V57Zm-4.122-1.332c.852 0 1.464-.252 1.836-.756v-1.08c-.372-.504-.984-.756-1.836-.756-.468 0-.858.12-1.17.36-.312.228-.468.546-.468.954 0 .396.156.708.468.936.312.228.702.342 1.17.342ZM54.409 57h-2.286v-8.694h2.286v1.188a3.827 3.827 0 0 1 1.242-1.008 3.266 3.266 0 0 1 1.53-.396v2.232a2.919 2.919 0 0 0-.63-.054c-.384 0-.792.096-1.224.288-.432.192-.738.426-.918.702V57Zm8.25.216c-1.343 0-2.447-.426-3.311-1.278-.864-.852-1.296-1.95-1.296-3.294 0-1.332.432-2.424 1.296-3.276.864-.852 1.968-1.278 3.312-1.278 1.536 0 2.682.522 3.438 1.566l-1.494 1.404c-.42-.624-1.032-.936-1.836-.936-.696 0-1.266.234-1.71.702-.432.456-.648 1.062-.648 1.818s.216 1.368.648 1.836c.444.468 1.014.702 1.71.702.78 0 1.392-.312 1.836-.936l1.494 1.386c-.756 1.056-1.902 1.584-3.438 1.584ZM75.765 57h-2.286v-5.292c0-.576-.138-.984-.414-1.224-.276-.24-.678-.36-1.206-.36-.804 0-1.464.342-1.98 1.026V57h-2.286V44.994h2.286v4.446c.312-.372.732-.69 1.26-.954a4.043 4.043 0 0 1 1.8-.396c.936 0 1.638.24 2.106.72.48.48.72 1.152.72 2.016V57Zm9.775 0h-2.286v-.9c-.624.744-1.542 1.116-2.754 1.116-.78 0-1.482-.252-2.106-.756-.612-.516-.918-1.224-.918-2.124 0-.936.3-1.638.9-2.106.612-.468 1.32-.702 2.124-.702 1.236 0 2.154.354 2.754 1.062v-1.17c0-.444-.174-.798-.522-1.062-.348-.264-.81-.396-1.386-.396-.948 0-1.794.342-2.538 1.026l-.864-1.53c1.032-.912 2.298-1.368 3.798-1.368 1.116 0 2.028.258 2.736.774.708.516 1.062 1.356 1.062 2.52V57Zm-4.122-1.332c.852 0 1.464-.252 1.836-.756v-1.08c-.372-.504-.984-.756-1.836-.756-.468 0-.858.12-1.17.36-.312.228-.468.546-.468.954 0 .396.156.708.468.936.312.228.702.342 1.17.342Zm9.522 1.548c-.756 0-1.482-.12-2.178-.36-.684-.24-1.254-.57-1.71-.99l.99-1.602c.336.312.792.588 1.368.828.576.24 1.122.36 1.638.36.48 0 .84-.084 1.08-.252a.783.783 0 0 0 .378-.684c0-.216-.132-.39-.396-.522-.252-.144-.57-.246-.954-.306-.372-.06-.786-.15-1.242-.27a8.869 8.869 0 0 1-1.242-.432 2.404 2.404 0 0 1-.954-.792c-.252-.372-.378-.828-.378-1.368 0-.768.318-1.416.954-1.944.636-.528 1.506-.792 2.61-.792 1.344 0 2.514.396 3.51 1.188l-.918 1.566c-.276-.288-.648-.528-1.116-.72a3.718 3.718 0 0 0-1.458-.288c-.408 0-.738.084-.99.252-.252.156-.378.36-.378.612 0 .192.126.354.378.486.252.12.57.21.954.27.384.06.798.156 1.242.288.444.12.858.27 1.242.45.384.168.702.444.954.828.252.384.378.852.378 1.404 0 .816-.336 1.488-1.008 2.016-.66.516-1.578.774-2.754.774Zm6.58-9.846a1.36 1.36 0 0 1-.972-.396 1.36 1.36 0 0 1-.396-.972c0-.372.132-.69.396-.954.276-.264.6-.396.972-.396.384 0 .708.132.972.396a1.3 1.3 0 0 1 .396.954c0 .372-.132.696-.396.972a1.321 1.321 0 0 1-.972.396ZM98.671 57h-2.286v-8.694h2.286V57Zm10.421 0h-2.286v-5.256c0-1.08-.534-1.62-1.602-1.62-.828 0-1.488.342-1.98 1.026V57h-2.286v-8.694h2.286v1.134c.756-.9 1.77-1.35 3.042-1.35.936 0 1.638.246 2.106.738.48.492.72 1.17.72 2.034V57Zm3.404-9.63a1.36 1.36 0 0 1-.972-.396 1.36 1.36 0 0 1-.396-.972c0-.372.132-.69.396-.954.276-.264.6-.396.972-.396.384 0 .708.132.972.396a1.3 1.3 0 0 1 .396.954c0 .372-.132.696-.396.972a1.321 1.321 0 0 1-.972.396Zm1.152 9.63h-2.286v-8.694h2.286V57Zm15.368 0h-2.862l-2.304-3.348-1.044 1.116V57h-2.286V44.994h2.286v7.182l3.294-3.87h2.808l-3.438 3.942L129.016 57Zm8.411-1.098c-.84.876-1.956 1.314-3.348 1.314s-2.508-.438-3.348-1.314c-.828-.888-1.242-1.974-1.242-3.258s.414-2.364 1.242-3.24c.84-.876 1.956-1.314 3.348-1.314s2.508.438 3.348 1.314c.84.876 1.26 1.956 1.26 3.24 0 1.284-.42 2.37-1.26 3.258Zm-4.968-1.44c.396.48.936.72 1.62.72s1.224-.24 1.62-.72c.408-.492.612-1.098.612-1.818 0-.708-.204-1.302-.612-1.782-.396-.492-.936-.738-1.62-.738s-1.224.246-1.62.738c-.396.48-.594 1.074-.594 1.782 0 .72.198 1.326.594 1.818Zm10.484-7.812c0 .66-.168 1.284-.504 1.872a4.788 4.788 0 0 1-1.35 1.476l-.99-.81c.3-.156.588-.402.864-.738.276-.336.45-.66.522-.972-.072.048-.186.072-.342.072a1.2 1.2 0 0 1-.882-.36 1.343 1.343 0 0 1-.342-.936c0-.396.138-.732.414-1.008.276-.288.606-.432.99-.432.444 0 .822.168 1.134.504.324.324.486.768.486 1.332ZM147.081 57h-2.286v-8.694h2.286v1.188a3.827 3.827 0 0 1 1.242-1.008 3.266 3.266 0 0 1 1.53-.396v2.232a2.919 2.919 0 0 0-.63-.054c-.384 0-.792.096-1.224.288-.432.192-.738.426-.918.702V57Zm5.334-9.63a1.36 1.36 0 0 1-.972-.396 1.36 1.36 0 0 1-.396-.972c0-.372.132-.69.396-.954.276-.264.6-.396.972-.396.384 0 .708.132.972.396a1.3 1.3 0 0 1 .396.954c0 .372-.132.696-.396.972a1.321 1.321 0 0 1-.972.396Zm1.152 9.63h-2.286v-8.694h2.286V57Zm5.399.216c-.756 0-1.482-.12-2.178-.36-.684-.24-1.254-.57-1.71-.99l.99-1.602c.336.312.792.588 1.368.828.576.24 1.122.36 1.638.36.48 0 .84-.084 1.08-.252a.783.783 0 0 0 .378-.684c0-.216-.132-.39-.396-.522-.252-.144-.57-.246-.954-.306-.372-.06-.786-.15-1.242-.27a8.869 8.869 0 0 1-1.242-.432 2.404 2.404 0 0 1-.954-.792c-.252-.372-.378-.828-.378-1.368 0-.768.318-1.416.954-1.944.636-.528 1.506-.792 2.61-.792 1.344 0 2.514.396 3.51 1.188l-.918 1.566c-.276-.288-.648-.528-1.116-.72a3.718 3.718 0 0 0-1.458-.288c-.408 0-.738.084-.99.252-.252.156-.378.36-.378.612 0 .192.126.354.378.486.252.12.57.21.954.27.384.06.798.156 1.242.288.444.12.858.27 1.242.45.384.168.702.444.954.828.252.384.378.852.378 1.404 0 .816-.336 1.488-1.008 2.016-.66.516-1.578.774-2.754.774ZM172.584 57h-2.286v-5.292c0-.576-.138-.984-.414-1.224-.276-.24-.678-.36-1.206-.36-.804 0-1.464.342-1.98 1.026V57h-2.286V44.994h2.286v4.446c.312-.372.732-.69 1.26-.954a4.043 4.043 0 0 1 1.8-.396c.936 0 1.638.24 2.106.72.48.48.72 1.152.72 2.016V57Z"/><path fill="#6911AD" fill-rule="evenodd" d="M35 0C15.67 0 0 15.67 0 35s15.67 35 35 35c10.908 0 20.651-4.99 27.07-12.813.191.02.388.029.59.029 1.536 0 2.682-.528 3.438-1.584l-1.494-1.386c-.24.337-.529.583-.866.738a34.909 34.909 0 0 0 3.854-7.2V57h2.286v-5.85c.516-.684 1.176-1.026 1.98-1.026.528 0 .93.12 1.206.36.276.24.414.648.414 1.224V57h2.286v-6.174c0-.864-.24-1.536-.72-2.016-.468-.48-1.17-.72-2.106-.72-.66 0-1.26.132-1.8.396-.528.264-.948.582-1.26.954v-4.446h-1.326A35.008 35.008 0 0 0 70 35C70 15.67 54.33 0 35 0Zm33.552 44.994h-.96v2.79a34.73 34.73 0 0 0 .96-2.79Zm-4.814 9.99a2.298 2.298 0 0 1-.97.198c-.696 0-1.266-.234-1.71-.702-.432-.468-.648-1.08-.648-1.836s.216-1.362.648-1.818c.444-.468 1.014-.702 1.71-.702.804 0 1.416.312 1.836.936l1.494-1.404c-.756-1.044-1.902-1.566-3.438-1.566-1.344 0-2.448.426-3.312 1.278-.864.852-1.296 1.944-1.296 3.276 0 1.344.432 2.442 1.296 3.294.734.724 1.641 1.14 2.722 1.25a35.129 35.129 0 0 0 1.668-2.204ZM30.468 57h6.516c1.104 0 1.962-.306 2.574-.918.612-.612.918-1.386.918-2.322 0-.744-.222-1.398-.666-1.962-.444-.564-.99-.894-1.638-.99.588-.12 1.08-.426 1.476-.918.396-.492.594-1.104.594-1.836a2.88 2.88 0 0 0-.918-2.16c-.6-.6-1.446-.9-2.538-.9h-6.318V57Zm6.786-7.56c-.252.24-.594.36-1.026.36h-3.204v-2.61h3.204c.42 0 .756.126 1.008.378.264.24.396.552.396.936s-.126.696-.378.936Zm.198 4.986c-.276.24-.654.36-1.134.36h-3.294v-2.79h3.294c.48 0 .858.138 1.134.414.276.264.414.594.414.99 0 .432-.138.774-.414 1.026ZM47.57 57h2.286v-5.616c0-1.164-.354-2.004-1.062-2.52-.708-.516-1.62-.774-2.736-.774-1.5 0-2.766.456-3.798 1.368l.864 1.53c.744-.684 1.59-1.026 2.538-1.026.576 0 1.038.132 1.386.396.348.264.522.618.522 1.062v1.17c-.6-.708-1.518-1.062-2.754-1.062-.804 0-1.512.234-2.124.702-.6.468-.9 1.17-.9 2.106 0 .9.306 1.608.918 2.124a3.265 3.265 0 0 0 2.106.756c1.212 0 2.13-.372 2.754-1.116v.9Zm0-2.088c-.372.504-.984.756-1.836.756-.468 0-.858-.114-1.17-.342a1.097 1.097 0 0 1-.468-.936c0-.408.156-.726.468-.954.312-.24.702-.36 1.17-.36.852 0 1.464.252 1.836.756v1.08ZM52.123 57h2.286v-5.742c.18-.276.486-.51.918-.702.432-.192.84-.288 1.224-.288.264 0 .474.018.63.054V48.09c-.516 0-1.026.132-1.53.396s-.918.6-1.242 1.008v-1.188h-2.286V57Zm31.13 0h2.286v-5.616c0-1.164-.354-2.004-1.062-2.52-.708-.516-1.62-.774-2.736-.774-1.5 0-2.766.456-3.798 1.368l.864 1.53c.744-.684 1.59-1.026 2.538-1.026.576 0 1.038.132 1.386.396.348.264.522.618.522 1.062v1.17c-.6-.708-1.518-1.062-2.754-1.062-.804 0-1.512.234-2.124.702-.6.468-.9 1.17-.9 2.106 0 .9.306 1.608.918 2.124a3.265 3.265 0 0 0 2.106.756c1.212 0 2.13-.372 2.754-1.116v.9Zm0-2.088c-.372.504-.984.756-1.836.756-.468 0-.858-.114-1.17-.342a1.097 1.097 0 0 1-.468-.936c0-.408.156-.726.468-.954.312-.24.702-.36 1.17-.36.852 0 1.464.252 1.836.756v1.08Zm5.508 1.944c.696.24 1.422.36 2.178.36 1.176 0 2.094-.258 2.754-.774.672-.528 1.008-1.2 1.008-2.016 0-.552-.126-1.02-.378-1.404a2.176 2.176 0 0 0-.954-.828 7.584 7.584 0 0 0-1.242-.45 9.565 9.565 0 0 0-1.242-.288 3.491 3.491 0 0 1-.954-.27c-.252-.132-.378-.294-.378-.486 0-.252.126-.456.378-.612.252-.168.582-.252.99-.252.516 0 1.002.096 1.458.288.468.192.84.432 1.116.72l.918-1.566c-.996-.792-2.166-1.188-3.51-1.188-1.104 0-1.974.264-2.61.792-.636.528-.954 1.176-.954 1.944 0 .54.126.996.378 1.368.264.36.582.624.954.792.384.168.798.312 1.242.432.456.12.87.21 1.242.27.384.06.702.162.954.306.264.132.396.306.396.522a.783.783 0 0 1-.378.684c-.24.168-.6.252-1.08.252-.516 0-1.062-.12-1.638-.36-.576-.24-1.032-.516-1.368-.828l-.99 1.602c.456.42 1.026.75 1.71.99Zm7.786-9.882c.276.264.6.396.972.396.384 0 .708-.132.972-.396.264-.276.396-.6.396-.972a1.3 1.3 0 0 0-.396-.954 1.321 1.321 0 0 0-.972-.396 1.36 1.36 0 0 0-.972.396 1.3 1.3 0 0 0-.396.954c0 .372.132.696.396.972ZM96.385 57h2.286v-8.694h-2.286V57Zm10.421 0h2.286v-6.138c0-.864-.24-1.542-.72-2.034-.468-.492-1.17-.738-2.106-.738-1.272 0-2.286.45-3.042 1.35v-1.134h-2.286V57h2.286v-5.85c.492-.684 1.152-1.026 1.98-1.026 1.068 0 1.602.54 1.602 1.62V57Zm4.718-10.026c.276.264.6.396.972.396.384 0 .708-.132.972-.396.264-.276.396-.6.396-.972a1.3 1.3 0 0 0-.396-.954 1.321 1.321 0 0 0-.972-.396 1.36 1.36 0 0 0-.972.396 1.3 1.3 0 0 0-.396.954c0 .372.132.696.396.972ZM111.362 57h2.286v-8.694h-2.286V57Zm14.792 0h2.862l-3.546-4.752 3.438-3.942H126.1l-3.294 3.87v-7.182h-2.286V57h2.286v-2.232l1.044-1.116L126.154 57Zm7.925.216c1.392 0 2.508-.438 3.348-1.314.84-.888 1.26-1.974 1.26-3.258s-.42-2.364-1.26-3.24c-.84-.876-1.956-1.314-3.348-1.314s-2.508.438-3.348 1.314c-.828.876-1.242 1.956-1.242 3.24 0 1.284.414 2.37 1.242 3.258.84.876 1.956 1.314 3.348 1.314Zm0-2.034c-.684 0-1.224-.24-1.62-.72-.396-.492-.594-1.098-.594-1.818 0-.708.198-1.302.594-1.782.396-.492.936-.738 1.62-.738s1.224.246 1.62.738c.408.48.612 1.074.612 1.782 0 .72-.204 1.326-.612 1.818-.396.48-.936.72-1.62.72Zm8.36-6.66a3.715 3.715 0 0 0 .504-1.872c0-.564-.162-1.008-.486-1.332a1.49 1.49 0 0 0-1.134-.504c-.384 0-.714.144-.99.432a1.372 1.372 0 0 0-.414 1.008c0 .372.114.684.342.936.24.24.534.36.882.36.156 0 .27-.024.342-.072-.072.312-.246.636-.522.972-.276.336-.564.582-.864.738l.99.81a4.788 4.788 0 0 0 1.35-1.476ZM144.795 57h2.286v-5.742c.18-.276.486-.51.918-.702.432-.192.84-.288 1.224-.288.264 0 .474.018.63.054V48.09c-.516 0-1.026.132-1.53.396s-.918.6-1.242 1.008v-1.188h-2.286V57Zm6.648-10.026c.276.264.6.396.972.396.384 0 .708-.132.972-.396.264-.276.396-.6.396-.972a1.3 1.3 0 0 0-.396-.954 1.321 1.321 0 0 0-.972-.396 1.36 1.36 0 0 0-.972.396 1.3 1.3 0 0 0-.396.954c0 .372.132.696.396.972ZM151.281 57h2.286v-8.694h-2.286V57Zm5.507-.144c.696.24 1.422.36 2.178.36 1.176 0 2.094-.258 2.754-.774.672-.528 1.008-1.2 1.008-2.016 0-.552-.126-1.02-.378-1.404a2.176 2.176 0 0 0-.954-.828 7.58 7.58 0 0 0-1.242-.45 9.568 9.568 0 0 0-1.242-.288 3.491 3.491 0 0 1-.954-.27c-.252-.132-.378-.294-.378-.486 0-.252.126-.456.378-.612.252-.168.582-.252.99-.252.516 0 1.002.096 1.458.288.468.192.84.432 1.116.72l.918-1.566c-.996-.792-2.166-1.188-3.51-1.188-1.104 0-1.974.264-2.61.792-.636.528-.954 1.176-.954 1.944 0 .54.126.996.378 1.368.264.36.582.624.954.792.384.168.798.312 1.242.432.456.12.87.21 1.242.27.384.06.702.162.954.306.264.132.396.306.396.522a.783.783 0 0 1-.378.684c-.24.168-.6.252-1.08.252-.516 0-1.062-.12-1.638-.36-.576-.24-1.032-.516-1.368-.828l-.99 1.602c.456.42 1.026.75 1.71.99Zm13.51.144h2.286v-6.174c0-.864-.24-1.536-.72-2.016-.468-.48-1.17-.72-2.106-.72-.66 0-1.26.132-1.8.396-.528.264-.948.582-1.26.954v-4.446h-2.286V57h2.286v-5.85c.516-.684 1.176-1.026 1.98-1.026.528 0 .93.12 1.206.36.276.24.414.648.414 1.224V57Z" clip-rule="evenodd"/></svg>