<svg xmlns="http://www.w3.org/2000/svg" width="136" height="70" fill="none"><path fill="#fff" d="M48.463 57h-2.574v-8.406L42.505 57h-1.116l-3.384-8.406V57h-2.556V44.994h3.582l2.916 7.254 2.916-7.254h3.6V57Zm3.464-9.63a1.36 1.36 0 0 1-.972-.396 1.36 1.36 0 0 1-.396-.972c0-.372.132-.69.396-.954.276-.264.6-.396.972-.396.384 0 .708.132.972.396a1.3 1.3 0 0 1 .396.954c0 .372-.132.696-.396.972a1.321 1.321 0 0 1-.972.396ZM53.08 57h-2.286v-8.694h2.286V57Zm3.4-9.63a1.36 1.36 0 0 1-.971-.396 1.36 1.36 0 0 1-.396-.972c0-.372.132-.69.396-.954.276-.264.6-.396.972-.396.384 0 .708.132.972.396a1.3 1.3 0 0 1 .396.954c0 .372-.132.696-.396.972a1.321 1.321 0 0 1-.972.396Zm-1.943 13.158c-.528 0-.936-.048-1.224-.144-.3-.084-.618-.24-.954-.468l.63-1.71c.36.3.75.45 1.17.45.36 0 .648-.12.864-.36.216-.24.324-.594.324-1.062v-8.928h2.286v8.928c0 1.02-.264 1.824-.792 2.412-.516.588-1.284.882-2.304.882Zm12.743-4.626c-.84.876-1.956 1.314-3.348 1.314s-2.508-.438-3.348-1.314c-.828-.888-1.242-1.974-1.242-3.258s.414-2.364 1.242-3.24c.84-.876 1.956-1.314 3.348-1.314s2.508.438 3.348 1.314c.84.876 1.26 1.956 1.26 3.24 0 1.284-.42 2.37-1.26 3.258Zm-4.968-1.44c.396.48.936.72 1.62.72s1.224-.24 1.62-.72c.408-.492.612-1.098.612-1.818 0-.708-.204-1.302-.612-1.782-.396-.492-.936-.738-1.62-.738s-1.224.246-1.62.738c-.396.48-.594 1.074-.594 1.782 0 .72.198 1.326.594 1.818ZM76.949 57h-7.092v-1.71l3.924-4.986h-3.924v-1.998h7.02v1.656l-3.978 5.04h4.05V57Zm8.79-2.79c.192.276.474.51.846.702.372.18.744.27 1.116.27.66 0 1.194-.228 1.602-.684.408-.468.612-1.08.612-1.836s-.204-1.368-.612-1.836c-.408-.468-.942-.702-1.602-.702-.372 0-.744.096-1.116.288-.372.192-.654.432-.846.72v3.078Zm0 2.79h-2.286V44.994h2.286v4.428c.684-.888 1.578-1.332 2.682-1.332 1.128 0 2.052.414 2.772 1.242.72.828 1.08 1.938 1.08 3.33 0 1.416-.36 2.532-1.08 3.348-.72.804-1.644 1.206-2.772 1.206-1.08 0-1.974-.444-2.682-1.332V57Zm15.641-1.098c-.84.876-1.956 1.314-3.348 1.314s-2.508-.438-3.348-1.314c-.828-.888-1.242-1.974-1.242-3.258s.414-2.364 1.242-3.24c.84-.876 1.956-1.314 3.348-1.314s2.508.438 3.348 1.314c.84.876 1.26 1.956 1.26 3.24 0 1.284-.42 2.37-1.26 3.258Zm-4.968-1.44c.396.48.936.72 1.62.72s1.224-.24 1.62-.72c.408-.492.612-1.098.612-1.818 0-.708-.204-1.302-.612-1.782-.396-.492-.936-.738-1.62-.738s-1.224.246-1.62.738c-.396.48-.594 1.074-.594 1.782 0 .72.198 1.326.594 1.818Zm10.484-7.812c0 .66-.168 1.284-.504 1.872a4.788 4.788 0 0 1-1.35 1.476l-.99-.81c.3-.156.588-.402.864-.738.276-.336.45-.66.522-.972-.072.048-.186.072-.342.072a1.2 1.2 0 0 1-.882-.36 1.343 1.343 0 0 1-.342-.936c0-.396.138-.732.414-1.008.276-.288.606-.432.99-.432.444 0 .822.168 1.134.504.324.324.486.768.486 1.332ZM111.034 57h-2.286V44.994h2.286V57Zm3.401-9.63a1.36 1.36 0 0 1-.972-.396 1.36 1.36 0 0 1-.396-.972c0-.372.132-.69.396-.954.276-.264.6-.396.972-.396.384 0 .708.132.972.396a1.3 1.3 0 0 1 .396.954c0 .372-.132.696-.396.972a1.321 1.321 0 0 1-.972.396Zm1.152 9.63h-2.286v-8.694h2.286V57Zm5.399.216c-.756 0-1.482-.12-2.178-.36-.684-.24-1.254-.57-1.71-.99l.99-1.602c.336.312.792.588 1.368.828.576.24 1.122.36 1.638.36.48 0 .84-.084 1.08-.252a.783.783 0 0 0 .378-.684c0-.216-.132-.39-.396-.522-.252-.144-.57-.246-.954-.306-.372-.06-.786-.15-1.242-.27a8.869 8.869 0 0 1-1.242-.432 2.404 2.404 0 0 1-.954-.792c-.252-.372-.378-.828-.378-1.368 0-.768.318-1.416.954-1.944.636-.528 1.506-.792 2.61-.792 1.344 0 2.514.396 3.51 1.188l-.918 1.566c-.276-.288-.648-.528-1.116-.72a3.718 3.718 0 0 0-1.458-.288c-.408 0-.738.084-.99.252-.252.156-.378.36-.378.612 0 .192.126.354.378.486.252.12.57.21.954.27.384.06.798.156 1.242.288.444.12.858.27 1.242.45.384.168.702.444.954.828.252.384.378.852.378 1.404 0 .816-.336 1.488-1.008 2.016-.66.516-1.578.774-2.754.774ZM134.604 57h-2.286v-5.292c0-.576-.138-.984-.414-1.224-.276-.24-.678-.36-1.206-.36-.804 0-1.464.342-1.98 1.026V57h-2.286V44.994h2.286v4.446c.312-.372.732-.69 1.26-.954a4.043 4.043 0 0 1 1.8-.396c.936 0 1.638.24 2.106.72.48.48.72 1.152.72 2.016V57Z"/><path fill="#6911AD" fill-rule="evenodd" d="M35 0C15.67 0 0 15.67 0 35s15.67 35 35 35c11.013 0 20.838-5.087 27.254-13.038a5.25 5.25 0 0 0 1.677.254c1.392 0 2.508-.438 3.348-1.314.84-.888 1.26-1.974 1.26-3.258s-.42-2.364-1.26-3.24a4.208 4.208 0 0 0-.26-.249A34.879 34.879 0 0 0 70 35C70 15.67 54.33 0 35 0Zm30.913 51.427c.395-.742.764-1.5 1.106-2.272-.805-.71-1.835-1.065-3.088-1.065-1.392 0-2.508.438-3.348 1.314-.828.876-1.242 1.956-1.242 3.24 0 1.284.414 2.37 1.242 3.258a4.08 4.08 0 0 0 1.67 1.06c.472-.585.925-1.184 1.359-1.799.102.013.209.019.319.019.684 0 1.224-.24 1.62-.72.408-.492.612-1.098.612-1.818 0-.452-.084-.858-.25-1.217Zm0 0a35.004 35.004 0 0 1-2.301 3.736 1.924 1.924 0 0 1-1.301-.701c-.396-.492-.594-1.098-.594-1.818 0-.708.198-1.302.594-1.782.396-.492.936-.738 1.62-.738s1.224.246 1.62.738c.147.174.268.362.362.565ZM45.89 57h2.574V44.994h-3.6l-2.916 7.254-2.916-7.254h-3.582V57h2.556v-8.406L41.389 57h1.116l3.384-8.406V57Zm5.066-10.026c.276.264.6.396.972.396.384 0 .708-.132.972-.396.264-.276.396-.6.396-.972a1.3 1.3 0 0 0-.396-.954 1.321 1.321 0 0 0-.972-.396 1.36 1.36 0 0 0-.972.396 1.3 1.3 0 0 0-.396.954c0 .372.132.696.396.972ZM50.793 57h2.286v-8.694h-2.286V57Zm4.715-10.026c.276.264.6.396.972.396.384 0 .708-.132.972-.396.264-.276.396-.6.396-.972a1.3 1.3 0 0 0-.396-.954 1.321 1.321 0 0 0-.972-.396 1.36 1.36 0 0 0-.972.396 1.3 1.3 0 0 0-.396.954c0 .372.132.696.396.972Zm-2.196 13.41c.288.096.696.144 1.224.144 1.02 0 1.788-.294 2.304-.882.528-.588.792-1.392.792-2.412v-8.928h-2.286v8.928c0 .468-.108.822-.324 1.062-.216.24-.504.36-.864.36-.42 0-.81-.15-1.17-.45l-.63 1.71c.336.228.654.384.954.468ZM69.857 57h7.092v-1.998h-4.05l3.978-5.04v-1.656h-7.02v1.998h3.924l-3.924 4.986V57Zm16.728-2.088c-.372-.192-.654-.426-.846-.702v-3.078c.192-.288.474-.528.846-.72a2.414 2.414 0 0 1 1.116-.288c.66 0 1.194.234 1.602.702.408.468.612 1.08.612 1.836s-.204 1.368-.612 1.836c-.408.456-.942.684-1.602.684-.372 0-.744-.09-1.116-.27ZM83.453 57h2.286v-1.116c.708.888 1.602 1.332 2.682 1.332 1.128 0 2.052-.402 2.772-1.206.72-.816 1.08-1.932 1.08-3.348 0-1.392-.36-2.502-1.08-3.33-.72-.828-1.644-1.242-2.772-1.242-1.104 0-1.998.444-2.682 1.332v-4.428h-2.286V57Zm14.58.216c1.391 0 2.507-.438 3.347-1.314.84-.888 1.26-1.974 1.26-3.258s-.42-2.364-1.26-3.24c-.84-.876-1.956-1.314-3.348-1.314s-2.508.438-3.348 1.314c-.828.876-1.242 1.956-1.242 3.24 0 1.284.414 2.37 1.242 3.258.84.876 1.956 1.314 3.348 1.314Zm0-2.034c-.685 0-1.225-.24-1.62-.72-.397-.492-.595-1.098-.595-1.818 0-.708.198-1.302.594-1.782.396-.492.936-.738 1.62-.738s1.224.246 1.62.738c.408.48.612 1.074.612 1.782 0 .72-.204 1.326-.612 1.818-.396.48-.936.72-1.62.72Zm8.359-6.66a3.715 3.715 0 0 0 .504-1.872c0-.564-.162-1.008-.486-1.332a1.49 1.49 0 0 0-1.134-.504c-.384 0-.714.144-.99.432a1.372 1.372 0 0 0-.414 1.008c0 .372.114.684.342.936.24.24.534.36.882.36.156 0 .27-.024.342-.072-.072.312-.246.636-.522.972-.276.336-.564.582-.864.738l.99.81a4.788 4.788 0 0 0 1.35-1.476ZM108.748 57h2.286V44.994h-2.286V57Zm4.715-10.026c.276.264.6.396.972.396.384 0 .708-.132.972-.396.264-.276.396-.6.396-.972a1.3 1.3 0 0 0-.396-.954 1.321 1.321 0 0 0-.972-.396 1.36 1.36 0 0 0-.972.396 1.3 1.3 0 0 0-.396.954c0 .372.132.696.396.972ZM113.301 57h2.286v-8.694h-2.286V57Zm5.507-.144c.696.24 1.422.36 2.178.36 1.176 0 2.094-.258 2.754-.774.672-.528 1.008-1.2 1.008-2.016 0-.552-.126-1.02-.378-1.404a2.176 2.176 0 0 0-.954-.828 7.58 7.58 0 0 0-1.242-.45 9.568 9.568 0 0 0-1.242-.288 3.491 3.491 0 0 1-.954-.27c-.252-.132-.378-.294-.378-.486 0-.252.126-.456.378-.612.252-.168.582-.252.99-.252.516 0 1.002.096 1.458.288.468.192.84.432 1.116.72l.918-1.566c-.996-.792-2.166-1.188-3.51-1.188-1.104 0-1.974.264-2.61.792-.636.528-.954 1.176-.954 1.944 0 .54.126.996.378 1.368.264.36.582.624.954.792.384.168.798.312 1.242.432.456.12.87.21 1.242.27.384.06.702.162.954.306.264.132.396.306.396.522a.783.783 0 0 1-.378.684c-.24.168-.6.252-1.08.252-.516 0-1.062-.12-1.638-.36-.576-.24-1.032-.516-1.368-.828l-.99 1.602c.456.42 1.026.75 1.71.99Zm13.51.144h2.286v-6.174c0-.864-.24-1.536-.72-2.016-.468-.48-1.17-.72-2.106-.72-.66 0-1.26.132-1.8.396-.528.264-.948.582-1.26.954v-4.446h-2.286V57h2.286v-5.85c.516-.684 1.176-1.026 1.98-1.026.528 0 .93.12 1.206.36.276.24.414.648.414 1.224V57Z" clip-rule="evenodd"/></svg>