<svg width="32" height="32" fill="none" xmlns="http://www.w3.org/2000/svg"><path d="M9.013 29.333h13.974c3.68 0 5.146-2.253 5.32-5L29 13.32C29.187 10.44 26.893 8 24 8c-.813 0-1.56-.467-1.933-1.187l-.96-1.933c-.614-1.213-2.214-2.213-3.574-2.213H14.48c-1.373 0-2.973 1-3.587 2.213l-.96 1.933A2.191 2.191 0 0 1 8 8c-2.893 0-5.187 2.44-5 5.32l.693 11.013c.16 2.747 1.64 5 5.32 5ZM14 10.667h4" stroke="#5454D4" stroke-width="2" stroke-linecap="round" stroke-linejoin="round"/><path d="M16 24a4.342 4.342 0 0 0 4.333-4.333A4.342 4.342 0 0 0 16 15.333a4.342 4.342 0 0 0-4.333 4.334A4.342 4.342 0 0 0 16 24Z" stroke="#5454D4" stroke-width="2" stroke-linecap="round" stroke-linejoin="round"/></svg>