<svg width="153" height="38" fill="none" xmlns="http://www.w3.org/2000/svg"><path d="M23.03 37H.83V.98h6.32v30.46h15.88V37zm37.33-4.59c-3.46 3.5-7.87 5.24-13.23 5.24S37.36 35.9 33.9 32.4c-3.46-3.53-5.18-8-5.18-13.4s1.72-9.84 5.18-13.33c3.46-3.53 7.87-5.3 13.23-5.3s9.77 1.77 13.23 5.3c3.46 3.5 5.18 7.94 5.18 13.34 0 5.4-1.72 9.86-5.18 13.39zm-13.23-.38c3.56 0 6.44-1.22 8.64-3.67 2.2-2.48 3.3-5.6 3.3-9.34 0-3.78-1.1-6.9-3.3-9.34C53.57 7.23 50.69 6 47.13 6c-3.6 0-6.5 1.23-8.7 3.68-2.15 2.44-3.23 5.56-3.23 9.34 0 3.78 1.08 6.9 3.24 9.34 2.2 2.45 5.09 3.67 8.69 3.67zm45.02 5.67c-5.33 0-9.81-1.73-13.45-5.18-3.64-3.46-5.45-7.96-5.45-13.5 0-5.55 1.81-10.03 5.45-13.45C82.34 2.12 86.82.4 92.15.4c6.19 0 11.03 2.5 14.52 7.5l-5.18 2.92a11.7 11.7 0 00-4-3.46C95.87 6.45 94.1 6 92.15 6a11.9 11.9 0 00-8.91 3.68c-2.34 2.44-3.51 5.56-3.51 9.34 0 3.78 1.17 6.91 3.5 9.4a11.9 11.9 0 008.92 3.67c1.69 0 3.3-.33 4.8-.98 1.55-.64 2.8-1.4 3.73-2.26v-5.62H89.93v-5.56H107v13.5a19.13 19.13 0 01-14.85 6.53zm54.69-5.29c-3.46 3.5-7.87 5.24-13.23 5.24-5.37 0-9.78-1.75-13.23-5.24-3.46-3.53-5.19-8-5.19-13.4s1.73-9.84 5.19-13.33c3.45-3.53 7.86-5.3 13.23-5.3 5.36 0 9.77 1.77 13.23 5.3 3.45 3.5 5.18 7.94 5.18 13.34 0 5.4-1.73 9.86-5.18 13.39zm-13.23-.38c3.56 0 6.44-1.22 8.64-3.67 2.2-2.48 3.3-5.6 3.3-9.34 0-3.78-1.1-6.9-3.3-9.34-2.2-2.45-5.08-3.68-8.64-3.68-3.6 0-6.5 1.23-8.7 3.68-2.16 2.44-3.24 5.56-3.24 9.34 0 3.78 1.08 6.9 3.24 9.34 2.2 2.45 5.1 3.67 8.7 3.67z" fill="#000"/></svg>