<svg width="32" height="32" fill="none" xmlns="http://www.w3.org/2000/svg"><path d="M12 17.333a5.622 5.622 0 0 0-2.16 1.907 1.37 1.37 0 0 0 0 1.52A5.622 5.622 0 0 0 12 22.667M20.28 17.333a5.622 5.622 0 0 1 2.16 1.907 1.37 1.37 0 0 1 0 1.52 5.622 5.622 0 0 1-2.16 1.907" stroke="#FEDC5A" stroke-width="2" stroke-linecap="round" stroke-linejoin="round"/><path d="M12 29.333h8c6.667 0 9.333-2.666 9.333-9.333v-8c0-6.667-2.666-9.333-9.333-9.333h-8c-6.667 0-9.333 2.666-9.333 9.333v8c0 6.667 2.666 9.333 9.333 9.333ZM2.973 10.68l25.627-.013" stroke="#FEDC5A" stroke-width="2" stroke-linecap="round" stroke-linejoin="round"/></svg>