<svg width="32" height="32" fill="none" xmlns="http://www.w3.org/2000/svg"><path d="M29.333 20v-8c0-6.667-2.666-9.333-9.333-9.333h-8c-6.667 0-9.333 2.666-9.333 9.333v8c0 6.667 2.666 9.333 9.333 9.333h8c6.667 0 9.333-2.666 9.333-9.333ZM3.36 9.48h25.28M11.36 2.813v6.48M20.64 2.813v5.88" stroke="#F04037" stroke-width="2" stroke-linecap="round" stroke-linejoin="round"/><path d="M13 19.267v-1.6c0-2.054 1.453-2.894 3.227-1.867l1.386.8 1.387.8c1.773 1.027 1.773 2.707 0 3.733l-1.387.8-1.386.8C14.453 23.76 13 22.92 13 20.867v-1.6 0Z" stroke="#F04037" stroke-width="2" stroke-miterlimit="10" stroke-linecap="round" stroke-linejoin="round"/></svg>