<svg width="69" height="29" fill="none" xmlns="http://www.w3.org/2000/svg"><path d="M.397 22V.182h3.292v18.984h9.886V22H.397Zm23.57.33c-1.533 0-2.872-.351-4.016-1.054-1.143-.704-2.03-1.687-2.663-2.951-.632-1.265-.948-2.742-.948-4.432 0-1.698.316-3.182.948-4.453.632-1.272 1.52-2.259 2.663-2.962 1.144-.703 2.483-1.055 4.017-1.055 1.534 0 2.873.352 4.016 1.055 1.143.703 2.031 1.69 2.663 2.962.633 1.27.949 2.755.949 4.453 0 1.69-.317 3.167-.949 4.432-.632 1.264-1.52 2.247-2.663 2.95-1.143.704-2.482 1.055-4.016 1.055Zm.011-2.674c.995 0 1.819-.262 2.472-.788s1.136-1.225 1.449-2.099c.32-.873.48-1.836.48-2.887 0-1.044-.16-2.003-.48-2.876-.313-.881-.796-1.588-1.45-2.12-.652-.533-1.476-.8-2.47-.8-1.002 0-1.833.267-2.494.8-.653.532-1.14 1.239-1.46 2.12-.312.873-.468 1.832-.468 2.876 0 1.051.156 2.014.469 2.887.32.874.806 1.573 1.46 2.099.66.526 1.49.788 2.492.788Zm18.034 8.821c-1.3 0-2.418-.17-3.356-.511-.93-.341-1.69-.792-2.28-1.353-.59-.561-1.03-1.175-1.32-1.843l2.737-1.13c.192.313.448.643.767.991.327.355.767.657 1.321.906.561.248 1.282.373 2.163.373 1.207 0 2.205-.295 2.994-.884.788-.583 1.182-1.513 1.182-2.792v-3.217h-.202a7.263 7.263 0 0 1-.831 1.161c-.355.426-.846.796-1.47 1.108-.626.313-1.439.469-2.44.469-1.293 0-2.458-.302-3.495-.906-1.03-.61-1.846-1.509-2.45-2.695-.596-1.193-.895-2.66-.895-4.4 0-1.74.295-3.231.885-4.474.596-1.243 1.413-2.195 2.45-2.855 1.037-.668 2.212-1.002 3.526-1.002 1.016 0 1.836.17 2.461.512.625.333 1.112.724 1.46 1.172.355.447.628.841.82 1.182h.234V5.636h3.122v16.726c0 1.407-.327 2.56-.98 3.463-.654.902-1.538 1.57-2.653 2.002-1.108.434-2.358.65-3.75.65Zm-.032-9.364c.916 0 1.69-.213 2.322-.64.64-.432 1.123-1.05 1.45-1.853.333-.81.5-1.78.5-2.908 0-1.101-.163-2.07-.49-2.909-.327-.838-.806-1.491-1.438-1.96-.632-.476-1.414-.714-2.344-.714-.959 0-1.758.249-2.397.746-.64.49-1.122 1.158-1.449 2.003-.32.845-.48 1.79-.48 2.834 0 1.072.164 2.013.49 2.823.327.81.81 1.442 1.45 1.896.646.455 1.441.682 2.386.682Zm18.58 3.217c-1.535 0-2.873-.351-4.017-1.054-1.143-.704-2.031-1.687-2.663-2.951-.632-1.265-.948-2.742-.948-4.432 0-1.698.316-3.182.948-4.453.632-1.272 1.52-2.259 2.663-2.962 1.144-.703 2.482-1.055 4.017-1.055 1.534 0 2.872.352 4.016 1.055 1.143.703 2.031 1.69 2.663 2.962.632 1.27.948 2.755.948 4.453 0 1.69-.316 3.167-.948 4.432-.632 1.264-1.52 2.247-2.663 2.95-1.144.704-2.482 1.055-4.016 1.055Zm.01-2.674c.995 0 1.818-.262 2.472-.788.653-.526 1.136-1.225 1.449-2.099.32-.873.479-1.836.479-2.887 0-1.044-.16-2.003-.48-2.876-.312-.881-.795-1.588-1.448-2.12-.654-.533-1.477-.8-2.472-.8-1.001 0-1.832.267-2.493.8-.653.532-1.14 1.239-1.46 2.12-.312.873-.468 1.832-.468 2.876 0 1.051.156 2.014.469 2.887.32.874.806 1.573 1.46 2.099.66.526 1.49.788 2.492.788Z" fill="#000"/></svg>