<svg width="32" height="32" fill="none" xmlns="http://www.w3.org/2000/svg"><path d="M23.2 25.667H8.8c-2 0-2.8-.854-2.8-2.974v-1.386c0-2.12.8-2.974 2.8-2.974h14.4c2 0 2.8.854 2.8 2.974v1.386c0 2.12-.8 2.974-2.8 2.974ZM20.533 14.333h-9.066c-2 0-2.8-.853-2.8-2.973V9.973c0-2.12.8-2.973 2.8-2.973h9.066c2 0 2.8.853 2.8 2.973v1.387c0 2.12-.8 2.973-2.8 2.973ZM16 29.333v-3.2M16 17.333v-2.666" stroke="#FEDC5A" stroke-width="2" stroke-linecap="round" stroke-linejoin="round"/><path d="M16 2.667v3.586" stroke="#292D32" stroke-width="2" stroke-linecap="round" stroke-linejoin="round"/></svg>