<svg width="32" height="32" fill="none" xmlns="http://www.w3.org/2000/svg"><path d="m17.347 3.893 7.866 3.494c2.267 1 2.267 2.653 0 3.653l-7.866 3.493c-.894.4-2.36.4-3.254 0L6.227 11.04c-2.267-1-2.267-2.653 0-3.653l7.866-3.494c.894-.4 2.36-.4 3.254 0Z" stroke="#F04037" stroke-width="2" stroke-linecap="round" stroke-linejoin="round"/><path d="M4 14.667c0 1.12.84 2.413 1.867 2.866l9.053 4.027a2.65 2.65 0 0 0 2.16 0l9.053-4.027C27.16 17.08 28 15.787 28 14.667" stroke="#F04037" stroke-width="2" stroke-linecap="round" stroke-linejoin="round"/><path d="M4 21.333c0 1.24.733 2.36 1.867 2.867l9.053 4.027a2.65 2.65 0 0 0 2.16 0l9.053-4.027A3.143 3.143 0 0 0 28 21.333" stroke="#F04037" stroke-width="2" stroke-linecap="round" stroke-linejoin="round"/></svg>